<?xml version="1.0" encoding="utf-8"?>
<!-- Generator: Adobe Illustrator 19.0.0, SVG Export Plug-In . SVG Version: 6.00 Build 0)  -->
<svg version="1.1" id="Layer_1" xmlns="http://www.w3.org/2000/svg" xmlns:xlink="http://www.w3.org/1999/xlink" x="0px" y="0px"
	 viewBox="-116 358.9 378.1 77.1" style="enable-background:new -116 358.9 378.1 77.1;" xml:space="preserve">
<g>
	<path d="M-105.2,393.3V392l-1.3-0.2c-2.1-0.3-2.8-1.6-2.7-3.9l0.6-12.3l8.9,18l1.5-0.2l8.4-17.9l1,11.9c0.2,2.6-0.8,4-2.8,4.4
		l-0.8,0.2v1.3c0,0,3.4-0.1,6.2-0.1c2.7,0,6.1,0.1,6.1,0.1V392l-1.2-0.2c-1.6-0.2-2.2-0.9-2.4-2.4l-1.6-16.6
		c-0.2-2.4,0.4-3.2,2.1-3.5l0.9-0.2l-0.1-1.3c-2,0.1-5,0.2-7,0.2c0,1-0.1,2-0.9,3.8l-7.1,15.2l-7.2-15.6c-0.4-0.9-1-2.1-1-3.5
		c-3.6,0-8-0.1-8-0.1v1.3l0.8,0.1c2,0.3,2.7,1,2.6,2.9l-1,14.6c-0.2,2.6-1.1,4.5-3.1,4.9l-0.9,0.2v1.3c0,0,2.1-0.1,4.9-0.1
		C-107.5,393.2-105.2,393.3-105.2,393.3z"/>
	<path d="M-74.2,372.4l5.6,10v6c0,2-0.9,3-2.5,3.3l-0.9,0.2v1.3c0,0,2.9-0.1,5.7-0.1c2.6,0,6,0.1,6,0.1V392l-1.1-0.2
		c-1.6-0.3-2.2-0.7-2.2-2.5v-7.1l5.4-9.4c1.3-2.2,2.4-3,4-3.4l0.7-0.2v-1.3c0,0-1.5,0.1-3.4,0.1c-2.2,0-4.7-0.1-4.7-0.1v1.3l0.7,0.2
		c0.9,0.2,1.3,0.7,1.3,1.3c0,0.4-0.1,0.8-0.4,1.2l-4.6,8.4l-4.6-8.4c-0.3-0.5-0.4-0.9-0.4-1.3c0-0.7,0.4-1.1,1-1.2l0.6-0.2v-1.3
		c0,0-2.2,0.2-5.5,0.2c-2.9,0-5.3-0.2-5.3-0.2v1.3l0.8,0.2C-76.3,369.8-75,370.9-74.2,372.4z"/>
	<path d="M-25,393.3l1.2-6.7l-1.2-0.1c-1,3-3.1,5.4-6.5,5.4c-1.8,0-2.9-0.6-2.9-2.4v-8h2.8c1.6,0,2.4,0.6,2.6,1.8l0.2,0.9h1.3
		c0,0-0.1-2.2-0.1-4.3c0-2.3,0.1-4.6,0.1-4.6h-1.3l-0.3,1.7c-0.3,1.8-1.4,2.6-3.1,2.6h-2.3c0,0,0-7.3,0-9.9c0.3-0.1,1-0.2,2.2-0.2
		c3.8,0,5.8,1.9,6.1,4.5h1.2v-5.9c0,0-7.8,0.1-11.7,0.1c-2.6,0-6-0.1-6-0.1v1.3l1.1,0.2c1.6,0.3,2,0.7,2,2.5v16.6c0,2-0.9,3-2.3,3.3
		l-0.9,0.2v1.3c0,0,2.9-0.1,5.8-0.1C-33,393.2-25,393.3-25,393.3z"/>
	<path d="M-10.1,391.8c-1.7,0-3.2-0.4-3.2-2.5v-16.6c0-2,0.9-3,2.4-3.3l0.9-0.2v-1.3c0,0-2.8,0.1-5.7,0.1c-2.6,0-5.8-0.1-5.8-0.1
		v1.3l1.1,0.2c1.6,0.3,2,0.7,2,2.5v16.6c0,2-0.9,3-2.3,3.3l-0.9,0.2v1.3c0,0,2.7-0.1,5.5-0.1c3.9,0,12.9,0.1,12.9,0.1l0.8-7.4
		l-1.1-0.1C-4.5,389-6.6,391.8-10.1,391.8z"/>
	<path d="M18.4,386.6l-1.2-0.1c-1,3-3.1,5.4-6.5,5.4c-1.8,0-2.9-0.6-2.9-2.4v-8h2.8c1.6,0,2.4,0.6,2.6,1.8l0.2,0.9h1.3
		c0,0-0.1-2.2-0.1-4.3c0-2.3,0.1-4.6,0.1-4.6h-1.3l-0.3,1.7c-0.3,1.8-1.4,2.6-3.1,2.6H7.9c0,0,0-7.3,0-9.9c0.3-0.1,1-0.2,2.2-0.2
		c3.8,0,5.8,1.9,6.1,4.5h1.2v-5.9c0,0-7.8,0.1-11.7,0.1c-2.6,0-6-0.1-6-0.1v1.3l1.1,0.2c1.6,0.3,2,0.7,2,2.5v16.6c0,2-0.9,3-2.3,3.3
		l-0.9,0.2v1.3c0,0,2.9-0.1,5.8-0.1c3.8,0,11.8,0.1,11.8,0.1L18.4,386.6z"/>
	<path d="M33.7,393.9c4.6,0,5.7-1.4,9.3-1.4l0.7-6l-1.2-0.1c-0.5,2.6-2.5,5.7-6.7,5.7c-6.7,0-9.8-5.7-9.8-11.9
		c0-6.6,3.1-10.9,8.6-10.9c4.9,0,7.4,2.5,8.1,5.9h1.2v-6.8c-3.6,0-5.1-1-8.9-1c-9.2,0-14.4,6.6-14.4,13.8
		C20.5,389.4,26.2,393.9,33.7,393.9z"/>
	<path d="M68.5,373.2l0.4-5.8h-0.8c-0.3,0.4-0.7,0.6-1.4,0.6H49.3c-0.7,0-1.2-0.1-1.5-0.6H47l-0.4,5.7l1.1,0.2
		c0.9-2.5,2.6-3.4,5-3.4h2.6v18.7c0,2-0.9,3-2.3,3.3l-0.9,0.2v1.3c0,0,2.7-0.1,5.5-0.1c2.6,0,5.8,0.1,5.8,0.1V392l-1.1-0.2
		c-1.6-0.3-2-0.7-2-2.5v-19.5h2.9c2.9,0,4.4,1.1,4.4,3.2L68.5,373.2z"/>
	<path d="M96.5,392.4c-2.5,0-4.4-1.7-5.7-3.7l-2.7-4.4c-0.8-1.2-1.6-2.4-2.8-2.9c1.6-0.4,6-2.1,6-7c0-3-2.8-6.5-8.9-6.5
		c-1.5,0-3.4,0.1-5.4,0.1c-2.6,0-5.8-0.1-5.8-0.1v1.3l1.1,0.2c1.6,0.3,2,0.7,2,2.5v16.6c0,2-0.9,3-2.3,3.3l-0.9,0.2v1.3
		c0,0,2.7-0.1,5.5-0.1c2.6,0,5.8,0.1,5.8,0.1V392l-1.1-0.2c-1.6-0.3-2-0.7-2-2.5v-7c0,0,0.4-0.3,1.1-0.3c1.2,0,1.9,0.7,2.6,2.1
		l2.5,4.9c1.5,2.9,3.7,4.8,7.5,4.8c2.3,0,3.4-0.4,3.4-0.4V392.4z M83.4,380.5c0,0-0.7-0.3-1.8-0.3c-1.4,0-2.2,0.6-2.2,0.6v-11.2
		c0.3-0.1,0.8-0.2,1.5-0.2c2.6,0,5.2,1.8,5.2,5.3C86.1,377.5,84.6,379.7,83.4,380.5z"/>
	<path d="M107.9,393.3V392l-1.1-0.2c-1.6-0.3-2-0.7-2-2.5v-16.6c0-2,0.9-3,2.3-3.3l0.9-0.2v-1.3c0,0-2.7,0.1-5.5,0.1
		c-2.6,0-5.8-0.1-5.8-0.1v1.3l1.1,0.2c1.6,0.3,2,0.7,2,2.5v16.6c0,2-0.9,3-2.3,3.3l-0.9,0.2v1.3c0,0,2.7-0.1,5.5-0.1
		C104.7,393.2,107.9,393.3,107.9,393.3z"/>
	<path d="M122.4,393.9c4.6,0,5.7-1.4,9.3-1.4l0.7-6l-1.2-0.1c-0.5,2.6-2.5,5.7-6.7,5.7c-6.7,0-9.8-5.7-9.8-11.9
		c0-6.6,3.1-10.9,8.6-10.9c4.9,0,7.4,2.5,8.1,5.9h1.2v-6.8c-3.6,0-5.1-1-8.9-1c-9.2,0-14.4,6.6-14.4,13.8
		C109.2,389.4,114.9,393.9,122.4,393.9z"/>
	<path d="M144.5,381.3c0,8.1,5.7,12.6,13.2,12.6c4.6,0,5.7-1.4,9.3-1.4l0.7-6l-1.2-0.1c-0.5,2.6-2.5,5.7-6.7,5.7
		c-6.7,0-9.8-5.7-9.8-11.9c0-6.6,3.1-10.9,8.6-10.9c4.9,0,7.4,2.5,8.1,5.9h1.2v-6.8c-3.6,0-5.1-1-8.9-1
		C149.7,367.4,144.5,374.1,144.5,381.3z"/>
	<path d="M188.5,393.3l1.2-6.7l-1.2-0.1c-1,3-3.1,5.4-6.5,5.4c-1.8,0-2.9-0.6-2.9-2.4v-8h2.8c1.6,0,2.4,0.6,2.6,1.8l0.2,0.9h1.3
		c0,0-0.1-2.2-0.1-4.3c0-2.3,0.1-4.6,0.1-4.6h-1.3l-0.3,1.7c-0.3,1.8-1.4,2.6-3.1,2.6h-2.3c0,0,0-7.3,0-9.9c0.3-0.1,1-0.2,2.2-0.2
		c3.8,0,5.8,1.9,6.1,4.5h1.2v-5.9c0,0-7.8,0.1-11.7,0.1c-2.6,0-6-0.1-6-0.1v1.3l1.1,0.2c1.6,0.3,2,0.7,2,2.5v16.6c0,2-0.9,3-2.3,3.3
		L171,392v1.3c0,0,2.9-0.1,5.8-0.1C180.6,393.2,188.5,393.3,188.5,393.3z"/>
	<path d="M210.6,393.3l0.8-7.4l-1.1-0.1c-1.2,3.3-3.3,6.1-6.7,6.1c-1.7,0-3.2-0.4-3.2-2.5v-16.6c0-2,0.9-3,2.4-3.3l0.9-0.2v-1.3
		c0,0-2.8,0.1-5.7,0.1c-2.6,0-5.8-0.1-5.8-0.1v1.3l1.1,0.2c1.6,0.3,2,0.7,2,2.5v16.6c0,2-0.9,3-2.3,3.3l-0.9,0.2v1.3
		c0,0,2.7-0.1,5.5-0.1C201.6,393.2,210.6,393.3,210.6,393.3z"/>
	<path d="M231.7,393.3l0.8-7.4l-1.1-0.1c-1.2,3.3-3.3,6.1-6.7,6.1c-1.7,0-3.2-0.4-3.2-2.5v-16.6c0-2,0.9-3,2.4-3.3l0.9-0.2v-1.3
		c0,0-2.8,0.1-5.7,0.1c-2.6,0-5.8-0.1-5.8-0.1v1.3l1.1,0.2c1.6,0.3,2,0.7,2,2.5v16.6c0,2-0.9,3-2.3,3.3l-0.9,0.2v1.3
		c0,0,2.7-0.1,5.5-0.1C222.7,393.2,231.7,393.3,231.7,393.3z"/>
	<path d="M246.8,393.9c9.3,0,14.4-6.7,14.4-13.8c0-7.9-5.7-12.6-12.7-12.6c-9.3,0-14.4,6.7-14.4,13.8
		C234.1,389.2,239.8,393.9,246.8,393.9z M246.9,369.2c5,0,8.9,4.7,8.9,11.9c0,6-1.9,10.9-7.4,10.9c-5,0-8.9-4.7-8.9-11.9
		C239.5,374.1,241.4,369.2,246.9,369.2z"/>
	<path d="M24.3,425.8l-1.1-12.5l-1.3,0.2l-6.4,11.3c-0.6,1.1-1.1,1.8-2.4,2.1l-0.4,0.1l-0.1,0.6c0,0,1.5-0.1,2.4-0.1
		c0.9,0,2.4,0.1,2.4,0.1l0.1-0.6l-0.6-0.1c-0.5-0.1-0.8-0.2-0.8-0.5c0-0.4,0.2-0.8,0.5-1.3l1.4-2.7h4.3l0.2,2.8
		c0.1,1.1-0.5,1.6-1.5,1.8l-0.4,0.1l-0.1,0.6c0,0,1.7-0.1,3.1-0.1c1.4,0,2.5,0.1,2.5,0.1l0.1-0.6l-0.6-0.1
		C24.7,426.9,24.4,426.5,24.3,425.8z M18.3,421.6l3.3-5.9l0.5,5.9H18.3z"/>
	<path d="M44.4,426.7c-0.2,0-0.3-0.1-0.3-0.3c0-0.3,0.2-0.9,0.5-1.9l1.2-3.4c0.2-0.6,0.4-1.4,0.4-1.8c0-0.6-0.3-1-1.1-1
		c-2,0-4.2,3.1-5.6,5.7h-0.1c0.1-0.2,0.5-1,1.2-2.8c0.2-0.6,0.5-1.4,0.5-1.9c0-0.6-0.3-1-1.1-1c-2,0-4.2,3.1-5.6,5.7h-0.1
		c0.2-0.4,0.7-1.8,2.3-5.7c-1.7,0.8-3.7,0.9-3.7,0.9v0.4c0.8,0,1.3,0.1,1.3,0.6c0,0.2-0.1,0.5-0.1,0.6l-1.8,5.8
		c-0.1,0.2-0.1,0.4-0.1,0.6c0,0.4,0.3,0.7,0.8,0.7c0.5,0,0.7-0.2,0.7-0.2c0-2.1,3.5-8.1,5.5-8.1c0.2,0,0.3,0.2,0.3,0.4
		c0,0.2-0.1,0.5-0.2,1c-0.8,2.1-1.4,3.8-1.9,5.6c-0.1,0.2-0.1,0.4-0.1,0.6c0,0.4,0.3,0.7,0.8,0.7c0.5,0,0.7-0.2,0.7-0.2
		c0-2.1,3.5-8.1,5.5-8.1c0.2,0,0.3,0.2,0.3,0.4c0,0.2-0.1,0.5-0.2,1l-1.2,3.4c-0.5,1.3-0.7,2.2-0.7,2.7c0,0.6,0.3,0.8,0.8,0.8
		c1.4,0,2.5-1.6,3.2-2.7l-0.3-0.2C45.7,425.6,44.9,426.7,44.4,426.7z"/>
	<path d="M55.6,418.4c-0.7,0-1.1,0.8-1.2,1.1c-0.3-0.3-0.8-0.6-1.5-0.6c-3,0-5.7,3.6-5.7,6.8c0,1.3,0.5,2.3,1.8,2.3
		c2,0,3.1-2.2,3.7-3.4h0.1c-0.2,0.5-0.6,1.4-0.6,2.3c0,0.8,0.4,1.1,1,1.1c1.4,0,2.5-1.9,3-2.9l-0.3-0.2c-0.5,0.8-1.2,1.8-1.9,1.8
		c-0.3,0-0.4-0.2-0.4-0.4c0-2,2.2-6.9,2.8-7.6C56.2,418.5,55.9,418.4,55.6,418.4z M49.7,426.8c-0.7,0-0.9-0.5-0.9-1.5
		c0-2.6,1.7-5.7,3.8-5.7c0.6,0,1.1,0.3,1.3,0.9C53.3,422.6,51.4,426.8,49.7,426.8z"/>
	<path d="M66.8,419.9c0-0.6-0.4-1.6-1.8-1.6c-2.3,0-4.3,2.8-5.7,5.7h-0.1c0-0.1,1.3-3.4,4.4-11.4c-1.7,0.8-3.7,0.9-3.7,0.9v0.4
		c0.8,0,1.3,0.1,1.3,0.6c0,0.2-0.1,0.5-0.1,0.7l-3.9,11.5c-0.1,0.2-0.1,0.4-0.1,0.6c0,0.4,0.3,0.7,0.8,0.7c0.5,0,0.7-0.2,0.7-0.2
		c0-2.1,3.4-8.1,5.9-8.1c0.6,0,0.8,0.3,0.8,0.7c0,1.4-2.7,2.6-4.1,3l0.3,1.4c0.5,2.2,1.3,3.2,3,3.2c1.3,0,2-0.9,2-0.9l-0.1-0.2
		c-0.3,0.1-0.7,0.2-1.2,0.2c-1.2,0-1.9-0.7-2.4-2.6l-0.3-1C64.5,423,66.8,422,66.8,419.9z"/>
	<path d="M73.3,418.3c-3.7,0-6,4.4-6,7.2c0,1.5,0.8,2.4,2.4,2.4c2.2,0,3.6-2.3,3.9-2.8l-0.3-0.2c-0.5,0.7-1.7,1.9-3,1.9
		c-1,0-1.4-0.8-1.4-1.5c0-0.7,0.1-1.3,0.3-2c3.7-1,5.6-2.1,5.6-3.7C74.8,419.1,74.4,418.3,73.3,418.3z M69.3,422.8
		c0.4-1.2,1.6-3.7,3.3-3.7c0.4,0,0.7,0.3,0.7,0.7C73.3,421.6,70.7,422.4,69.3,422.8z"/>
	<path d="M82.2,420.7c0,0,0.1,0,0.1,0c0.5,0,1.2-0.4,1.2-1.2c0-0.7-0.4-1.2-1.3-1.2c-2.5,0-4.8,5.7-4.8,5.7h-0.1
		c0.2-0.4,0.7-1.8,2.3-5.7c-1.7,0.8-3.7,0.9-3.7,0.9v0.4c0.8,0,1.3,0.1,1.3,0.6c0,0.2-0.1,0.5-0.1,0.7l-1.6,5.7
		c-0.1,0.2-0.1,0.3-0.1,0.5c0,0.4,0.3,0.8,0.7,0.8c0.5,0,0.7-0.1,0.7-0.1c0-2,2.7-8,4.6-8c0.6,0,0.7,0.4,0.7,0.6
		C82.3,420.6,82.2,420.7,82.2,420.7z"/>
	<path d="M87.7,418.3c-1.4,0-3.2,1.2-3.2,2.9c0,2,1.7,2.7,1.7,4.4c0,1-0.7,1.3-1.6,1.3c-0.5,0-1-0.3-1-0.7c0-0.2,0-0.3,0.1-0.4
		c0,0-0.1,0-0.2,0c-0.6,0-1.2,0.4-1.2,1.1c0,0.8,0.9,1.1,1.7,1.1c1.4,0,3.5-1.1,3.5-3c0-2-2-2.8-2-4.3c0-0.6,0.5-1.4,1.5-1.4
		c0.8,0,1,0.4,1,0.9c0,0.1,0,0.3-0.1,0.4c0.1,0,0.2,0,0.3,0c0.7,0,1.2-0.5,1.2-1.1C89.5,418.8,88.9,418.3,87.7,418.3z"/>
	<path d="M99.1,418.3c-1.4,0-3.2,1.2-3.2,2.9c0,2,1.7,2.7,1.7,4.4c0,1-0.7,1.3-1.6,1.3c-0.5,0-1-0.3-1-0.7c0-0.2,0-0.3,0.1-0.4
		c0,0-0.1,0-0.2,0c-0.6,0-1.2,0.4-1.2,1.1c0,0.8,0.9,1.1,1.7,1.1c1.4,0,3.5-1.1,3.5-3c0-2-2-2.8-2-4.3c0-0.6,0.5-1.4,1.5-1.4
		c0.8,0,1,0.4,1,0.9c0,0.1,0,0.3-0.1,0.4c0.1,0,0.2,0,0.3,0c0.7,0,1.2-0.5,1.2-1.1C100.9,418.8,100.2,418.3,99.1,418.3z"/>
	<path d="M103.2,426.5c-0.2,0-0.3-0.1-0.3-0.4c0-0.5,0.3-1.4,0.9-3l1.3-3.6h2.5l0.4-0.9h-2.5c0,0,0.6-1.9,1.1-2.4
		c-0.1-0.1-0.4-0.2-0.7-0.2c-0.7,0-1.1,0.3-1.4,1.1l-0.5,1.4l-1.3,0.3l-0.1,0.6l1.1,0l-2,5.6c-0.2,0.7-0.3,1.2-0.3,1.7
		c0,0.8,0.4,1.2,1,1.2c1.5,0,3.1-2.4,3.7-3.6l-0.3-0.2C105,425.2,103.9,426.5,103.2,426.5z"/>
	<path d="M112.9,418.3c-3.1,0-5.5,3.9-5.5,6.9c0,1.8,0.9,2.8,2.3,2.8c3.1,0,5.5-3.9,5.5-6.8C115.2,419.4,114.3,418.3,112.9,418.3z
		 M110.3,427.2c-0.8,0-1.3-0.8-1.3-2.3c0-2.3,1.4-5.9,3.3-5.9c0.8,0,1.3,0.8,1.3,2.2C113.6,423.6,112.1,427.2,110.3,427.2z"/>
	<path d="M122.3,419.8c0.6,0,0.7,0.4,0.7,0.6c0,0.1,0,0.3,0,0.3s0.1,0,0.1,0c0.5,0,1.2-0.4,1.2-1.2c0-0.7-0.4-1.2-1.3-1.2
		c-2.5,0-4.8,5.7-4.8,5.7h-0.1c0.2-0.4,0.7-1.8,2.3-5.7c-1.7,0.8-3.7,0.9-3.7,0.9v0.4c0.8,0,1.3,0.1,1.3,0.6c0,0.2-0.1,0.5-0.1,0.7
		l-1.6,5.7c-0.1,0.2-0.1,0.3-0.1,0.5c0,0.4,0.3,0.8,0.7,0.8c0.5,0,0.7-0.1,0.7-0.1C117.7,425.8,120.4,419.8,122.3,419.8z"/>
	<path d="M132.6,418.4c-0.6,0-1.1,0.4-1.2,1.2c0.6,0.1,0.9,0.7,0.9,1.3c0,1.9-1.8,5.1-3.5,6.8c0-3.3-0.1-6.3-0.2-8
		c0-0.6-0.1-1.2-0.8-1.2c-1.7,0-2.5,2.4-2.7,3.2l0.3,0c0-0.1,0.7-1.9,1.4-1.9c0.2,0,0.2,0.2,0.2,0.5c0.1,0.7,0.5,4.3,0.5,6.8
		c0,0.8,0,1.5-0.1,1.7c-0.4,0.9-2.4,2.3-4.4,2.3c-0.6,0-0.9-0.2-1.1-0.6c-0.5,0.1-0.9,0.5-0.9,1.1c0,0.6,0.5,1.1,1.3,1.1
		c4.6,0,11.7-9.2,11.7-12.8C133.9,419,133.4,418.4,132.6,418.4z"/>
	<rect x="-116" y="422.4" width="93.2" height="1"/>
	<rect x="168.8" y="422.4" width="93.2" height="1"/>
</g>
</svg>
